<svg xmlns="http://www.w3.org/2000/svg" xmlns:xlink="http://www.w3.org/1999/xlink" width="500" zoomAndPan="magnify" viewBox="0 0 375 374.999991" height="500" preserveAspectRatio="xMidYMid meet" version="1.2"><defs/><g id="6a146bbce1"><g style="fill:#000000;fill-opacity:1;"><g transform="translate(46.166302, 309.301493)"><path style="stroke:none" d="M 4.558594 -4.230469 C 4.558594 -1.953125 6.511719 0 8.789062 0 L 38.089844 0 C 40.371094 0 42.324219 -1.953125 42.324219 -4.230469 L 42.324219 -119.804688 C 42.324219 -122.085938 44.277344 -124.039062 46.554688 -124.039062 L 113.621094 -124.039062 C 115.898438 -124.039062 117.851562 -122.085938 117.851562 -119.804688 L 117.851562 -4.230469 C 117.851562 -1.953125 119.804688 0 122.085938 0 L 151.386719 0 C 153.664062 0 155.617188 -1.953125 155.617188 -4.230469 L 155.617188 -119.804688 C 155.617188 -122.085938 153.664062 -124.039062 151.386719 -124.039062 L 140.96875 -124.039062 C 138.6875 -124.039062 136.734375 -125.992188 136.734375 -128.269531 L 136.734375 -135.433594 C 136.734375 -137.710938 134.78125 -139.664062 132.503906 -139.664062 L 122.085938 -139.664062 C 119.804688 -139.664062 117.851562 -141.617188 117.851562 -143.898438 L 117.851562 -150.734375 C 117.851562 -153.011719 115.898438 -154.964844 113.621094 -154.964844 L 46.554688 -154.964844 C 44.277344 -154.964844 42.324219 -153.011719 42.324219 -150.734375 L 42.324219 -143.898438 C 42.324219 -141.617188 40.371094 -139.664062 38.089844 -139.664062 L 27.671875 -139.664062 C 25.394531 -139.664062 23.441406 -137.710938 23.441406 -135.433594 L 23.441406 -128.269531 C 23.441406 -125.992188 21.488281 -124.039062 19.207031 -124.039062 L 8.789062 -124.039062 C 6.511719 -124.039062 4.558594 -122.085938 4.558594 -119.804688 Z M 4.558594 -4.230469 "/></g></g><g style="fill:#000000;fill-opacity:1;"><g transform="translate(206.33601, 309.301493)"><path style="stroke:none" d="M 113.621094 0 C 115.898438 0 117.851562 -1.953125 117.851562 -4.230469 L 117.851562 -26.695312 C 117.851562 -28.976562 115.898438 -30.929688 113.621094 -30.929688 L 46.554688 -30.929688 C 44.277344 -30.929688 42.324219 -32.882812 42.324219 -35.160156 L 42.324219 -212.917969 C 42.324219 -215.195312 40.371094 -217.148438 38.089844 -217.148438 L 8.789062 -217.148438 C 6.511719 -217.148438 4.558594 -215.195312 4.558594 -212.917969 L 4.558594 -35.160156 C 4.558594 -32.882812 6.511719 -30.929688 8.789062 -30.929688 L 19.207031 -30.929688 C 21.488281 -30.929688 23.441406 -28.976562 23.441406 -26.695312 L 23.441406 -19.859375 C 23.441406 -17.582031 25.394531 -15.625 27.671875 -15.625 L 38.089844 -15.625 C 40.371094 -15.625 42.324219 -13.671875 42.324219 -11.394531 L 42.324219 -4.230469 C 42.324219 -1.953125 44.277344 0 46.554688 0 Z M 113.621094 0 "/></g></g></g></svg>